# xmcd
#
# Track frame offsets: 
#        150
#        19955
#        36210
#        57890
#        80965
#        100180
#        116795
#        134235
#        155845
#        174710
#        194125
#        214475
#
# Disc length: 3113 seconds
#
# Revision: 0
# Processed by: cddbd v1.5.1PL2 Copyright (c) Steve Scherf et al.
# Submitted via: ExactAudioCopy v0.95a5
#
DISCID=c40c270c
DTITLE=LSG - LSG2
DYEAR=2003
DGENRE=R&B
TTITLE0=Just Friends
TTITLE1=Wide Open
TTITLE2=Shakedown
TTITLE3=Fa Free
TTITLE4=Yesterday
TTITLE5=Play With Fire
TTITLE6=What About Me
TTITLE7=All I Want
TTITLE8=Lesson Learned
TTITLE9=Can't Get Over You
TTITLE10=Cry and Make Love
TTITLE11=Just Friends (Feat. Loon)(Yellowman Remix)
EXTD=
EXTT0=
EXTT1=
EXTT2=
EXTT3=
EXTT4=
EXTT5=
EXTT6=
EXTT7=
EXTT8=
EXTT9=
EXTT10=
EXTT11=
PLAYORDER=
